<svg xmlns="http://www.w3.org/2000/svg" viewBox="0 0 1024 1024" width="1024" height="1024"><defs><linearGradient id="fbg" x1="0" y1="0" x2="1" y2="1"><stop offset="0" stop-color="#3159E6"/><stop offset="1" stop-color="#1A2F9E"/></linearGradient><linearGradient id="fshine" x1="0" y1="0" x2="0" y2="1"><stop offset="0" stop-color="#fff" stop-opacity=".14"/><stop offset=".45" stop-color="#fff" stop-opacity="0"/></linearGradient><linearGradient id="fpen" x1="0" y1="0" x2="0" y2="1"><stop offset="0" stop-color="#FFC95E"/><stop offset=".5" stop-color="#FFB53D"/><stop offset="1" stop-color="#E9951B"/></linearGradient><linearGradient id="fband" x1="0" y1="0" x2="0" y2="1"><stop offset="0" stop-color="#E8EDFF"/><stop offset="1" stop-color="#AEBBEB"/></linearGradient><filter id="fsh" x="-20%" y="-20%" width="140%" height="150%"><feDropShadow dx="0" dy="20" stdDeviation="24" flood-color="#08164F" flood-opacity=".38"/></filter><filter id="fsh2" x="-30%" y="-30%" width="160%" height="160%"><feDropShadow dx="0" dy="12" stdDeviation="14" flood-color="#08164F" flood-opacity=".4"/></filter></defs><rect x="16" y="16" width="992" height="992" rx="190" fill="url(#fbg)"/><rect x="16" y="16" width="992" height="992" rx="190" fill="url(#fshine)"/><g filter="url(#fsh)"><path d="M266 176h320l178 178v486a44 44 0 0 1-44 44H266a44 44 0 0 1-44-44V220a44 44 0 0 1 44-44z" fill="#fff"/></g><path d="M586 176v134a44 44 0 0 0 44 44h134z" fill="#C7D2FF"/><g stroke-linecap="round" stroke-width="70"><path d="M330 430h230" stroke="#213FBF"/><path d="M330 570h250" stroke="#213FBF" opacity=".4"/></g><g filter="url(#fsh2)" transform="rotate(-45 700 700)"><path d="M600 648h320a38 38 0 0 1 38 38v28a38 38 0 0 1-38 38H600z" fill="url(#fpen)"/><path d="M600 700h358" stroke="#fff" stroke-opacity=".28" stroke-width="10"/><rect x="850" y="648" width="46" height="104" fill="url(#fband)"/><path d="M896 648h24a38 38 0 0 1 38 38v28a38 38 0 0 1-38 38h-24z" fill="#1E2A5C"/><path d="M600 648l-118 52 118 52z" fill="#FBE4B8"/><path d="M530 679l-48 21 48 21z" fill="#1E2A5C"/></g></svg>
